# xmcd
# 
# Track frame offsets:
#     187
#     19642
#     52940
#     71315
#     105317
#     124835
# 
# Disc length: 2055
# 
# Revision: 1
# Processed by: cddbd v1.5.2PL0 Copyright (c) Steve Scherf et al.
# Submitted via: BonkEnc v1.0.8
# 
DISCID=3f080506
DTITLE=Jonny Griffin - The Little Giant
DYEAR=1959
DGENRE=Jazz
TTITLE0=Olive Refractions
TTITLE1=The Message
TTITLE2=Lonely One
TTITLE3=63rd Street Theme
TTITLE4=Playmates
TTITLE5=Venus And The Moon
EXTD=YEAR: 1984
EXTT0=
EXTT1=
EXTT2=
EXTT3=
EXTT4=
EXTT5=
PLAYORDER=
